<svg width="96" height="96" viewBox="0 0 96 96" fill="none" xmlns="http://www.w3.org/2000/svg">
  <rect width="96" height="96" rx="22" fill="#F8FAFC"/>
  <path d="M62.7 50.1c-.1-7 5.7-10.4 6-10.6-3.3-4.8-8.3-5.4-10.1-5.5-4.3-.4-8.4 2.5-10.5 2.5-2.2 0-5.5-2.4-9-2.3-4.6.1-8.9 2.7-11.3 6.8-4.9 8.5-1.3 21 3.5 27.9 2.3 3.4 5.1 7.2 8.8 7.1 3.5-.1 4.9-2.3 9.1-2.3 4.2 0 5.4 2.3 9.1 2.2 3.8-.1 6.2-3.4 8.5-6.8 2.7-3.9 3.8-7.7 3.8-7.9-.1-.1-7.8-3.1-7.9-11.1Z" fill="#111827"/>
  <path d="M55.8 29.5c1.9-2.3 3.2-5.5 2.9-8.7-2.8.1-6.2 1.9-8.2 4.2-1.8 2.1-3.4 5.4-3 8.6 3.1.2 6.3-1.6 8.3-4.1Z" fill="#111827"/>
</svg>
